<?xml version="1.0" standalone="no"?>
<!DOCTYPE svg PUBLIC "-//W3C//DTD SVG 20010904//EN"
 "http://www.w3.org/TR/2001/REC-SVG-20010904/DTD/svg10.dtd">
<svg version="1.0" xmlns="http://www.w3.org/2000/svg"
 width="949.000000pt" height="949.000000pt" viewBox="0 0 949.000000 949.000000"
 preserveAspectRatio="xMidYMid meet">
<metadata>
Created by potrace 1.11, written by Peter Selinger 2001-2013
</metadata>
<g transform="translate(0.000000,949.000000) scale(0.100000,-0.100000)"
fill="#000000" stroke="none">
<path d="M0 4745 l0 -4745 1789 0 c1736 0 1793 1 1923 20 73 11 162 20 198 20
36 0 116 9 179 20 122 22 186 25 177 11 -4 -5 0 -12 6 -14 8 -4 3 -9 -12 -13
l-25 -8 25 -7 c21 -6 19 -7 -15 -9 -36 -1 -37 -2 -16 -11 14 -5 338 -8 821 -7
l798 3 -49 82 c-27 46 -51 93 -54 105 -4 16 13 61 50 138 30 63 55 121 55 129
0 11 -14 13 -77 7 -43 -3 -122 -9 -175 -13 -92 -6 -98 -7 -98 -28 0 -39 -21
-85 -39 -85 -10 0 -21 -3 -24 -7 -4 -3 -18 -8 -32 -9 -22 -2 -25 1 -25 26 0
24 8 34 40 52 22 13 40 26 40 30 0 9 -90 0 -115 -11 -26 -12 -200 -65 -285
-86 -87 -22 -240 -15 -425 19 -213 40 -275 47 -408 49 -117 2 -124 1 -169 -26
-44 -25 -57 -27 -195 -33 -81 -3 -222 -15 -313 -26 -91 -11 -187 -22 -215 -25
-27 -3 -53 -10 -56 -15 -4 -5 -85 -12 -185 -15 -267 -8 -324 -7 -324 10 0 4
-6 7 -14 7 -11 0 -54 46 -93 99 -1 2 -106 5 -232 7 -126 1 -239 5 -250 9 -14
4 -21 15 -21 31 0 17 -5 24 -20 24 -11 0 -20 7 -20 15 0 8 -9 15 -20 15 -11 0
-20 7 -20 15 0 8 7 15 15 15 10 0 14 8 11 23 -3 21 -7 22 -107 22 -57 0 -117
5 -134 12 -16 6 -84 23 -150 38 -66 16 -127 30 -135 33 -89 30 -149 31 -220 4
-36 -13 -76 -26 -90 -29 -26 -5 -37 -10 -150 -61 -96 -45 -156 -61 -222 -63
-10 0 -18 -4 -18 -8 0 -5 -29 -11 -65 -13 -36 -3 -72 -11 -80 -18 -29 -24
-253 -14 -331 15 -27 10 -69 33 -94 50 -25 17 -76 49 -113 69 -80 44 -97 71
-62 101 39 33 108 73 140 81 17 3 62 17 100 30 111 36 249 47 509 41 243 -6
248 -6 338 -31 31 -9 78 -18 105 -20 62 -4 184 11 197 24 5 5 18 10 27 10 16
0 76 27 89 40 18 18 72 50 84 50 8 0 18 5 21 10 3 6 19 10 34 10 15 0 42 7 60
16 26 13 39 14 79 4 26 -7 76 -15 111 -19 52 -5 68 -12 87 -34 13 -15 28 -27
34 -27 5 0 10 -4 10 -10 0 -5 11 -10 25 -10 14 0 25 -5 25 -10 0 -6 3 -9 8 -8
12 3 62 -25 62 -35 0 -5 7 -7 15 -3 8 3 31 -4 51 -16 37 -22 37 -22 53 -2 9
11 22 19 29 16 18 -6 15 9 -28 138 -21 65 -46 147 -55 181 -27 102 -144 446
-190 554 -23 55 -45 107 -48 117 -3 9 -36 58 -73 110 -101 141 -182 202 -614
460 -417 249 -514 312 -658 424 -40 31 -102 156 -102 204 0 33 49 132 117 234
49 75 121 226 138 292 8 32 17 105 20 163 7 127 12 151 28 151 21 1 107 69
119 95 9 20 5 36 -30 107 -59 118 -82 182 -88 247 -7 61 -15 45 115 235 48 69
53 146 17 278 -50 181 -52 339 -5 470 33 95 36 100 67 93 75 -16 360 -22 467
-10 147 17 348 76 433 127 63 38 126 67 134 62 4 -3 8 -26 8 -52 0 -26 11
-112 24 -192 13 -80 27 -167 30 -195 12 -87 57 -300 66 -309 4 -4 13 16 18 45
6 30 25 128 42 219 48 259 84 402 134 535 8 22 31 83 50 136 18 53 50 121 70
150 69 104 165 233 180 241 10 5 23 1 40 -14 23 -21 26 -32 32 -125 5 -73 3
-107 -5 -117 -7 -8 -9 -25 -5 -40 6 -25 5 -26 -47 -28 -30 -1 -63 -2 -74 -2
-37 -2 -20 -30 50 -83 38 -28 71 -55 72 -60 2 -5 -10 -17 -27 -26 -35 -21 -31
-39 8 -35 l27 3 -2 -83 c-1 -76 -4 -87 -36 -135 -19 -28 -48 -80 -66 -114 -17
-34 -35 -64 -41 -68 -16 -10 -76 -145 -90 -203 -12 -50 -10 -85 6 -140 6 -23
6 -23 -57 -17 -52 5 -70 3 -98 -13 -19 -10 -36 -23 -38 -29 -5 -14 76 -22 275
-29 171 -5 210 5 99 26 -35 6 -69 15 -76 19 -8 6 7 26 50 67 74 71 180 195
272 318 37 50 72 92 77 94 5 2 31 -11 57 -29 27 -18 54 -32 61 -32 6 0 12 -4
12 -8 0 -4 31 -32 70 -63 67 -55 160 -176 160 -210 0 -8 -21 -33 -47 -55 -27
-23 -43 -41 -38 -41 26 0 210 44 310 74 61 19 131 39 158 46 26 7 50 17 53 22
6 9 -71 83 -186 179 -93 78 -174 158 -167 165 3 3 16 -1 29 -10 12 -9 29 -16
36 -16 16 0 -25 35 -83 73 -22 14 -63 43 -92 64 -29 21 -92 66 -140 100 -48
34 -134 94 -190 134 -56 39 -104 77 -106 83 -7 18 9 96 21 108 16 16 27 8 513
-363 63 -49 118 -89 122 -89 35 0 -93 108 -440 372 -78 59 -144 112 -148 118
-4 6 -1 18 6 26 17 20 46 14 173 -36 56 -22 162 -59 236 -84 161 -52 237 -81
254 -95 7 -6 25 -43 40 -83 16 -40 41 -104 56 -143 16 -38 61 -167 101 -285
39 -118 76 -220 81 -227 5 -6 12 -81 14 -165 3 -84 7 -168 10 -186 10 -64 20
-47 134 230 28 68 64 137 87 165 103 128 122 152 162 211 26 38 47 60 52 55 5
-5 21 -54 35 -109 14 -54 36 -135 49 -179 13 -44 34 -121 46 -171 l23 -91 -35
-49 c-19 -27 -49 -74 -66 -104 -16 -30 -39 -71 -50 -90 -64 -114 -149 -283
-203 -405 -34 -77 -70 -158 -80 -180 -9 -22 -41 -102 -71 -179 l-53 -138 -82
-67 c-76 -61 -223 -161 -239 -161 -3 0 -25 -13 -48 -29 -79 -54 -250 -153
-327 -190 -43 -21 -91 -48 -108 -59 -16 -12 -34 -22 -38 -22 -4 0 -26 -8 -48
-19 -23 -10 -61 -26 -86 -36 -25 -10 -69 -29 -98 -42 -29 -13 -59 -23 -67 -23
-7 0 -17 -4 -20 -10 -3 -5 -47 -23 -98 -39 -51 -17 -130 -44 -177 -60 -47 -16
-137 -45 -200 -64 -63 -19 -155 -47 -205 -62 -132 -41 -266 -74 -415 -105
-162 -33 -204 -43 -220 -51 -12 -7 -11 -8 6 -9 20 0 102 -31 190 -70 22 -11
64 -28 92 -39 29 -12 103 -45 164 -75 149 -71 246 -116 252 -116 2 0 70 -32
150 -70 81 -39 149 -70 153 -70 3 0 21 -11 39 -25 18 -14 36 -25 39 -25 4 0
54 -22 111 -50 57 -27 106 -50 109 -50 2 0 27 -13 55 -30 28 -16 58 -30 66
-30 8 0 17 -7 20 -15 4 -8 10 -13 14 -10 4 3 14 -2 21 -11 7 -9 37 -27 66 -41
29 -14 57 -31 64 -39 6 -8 17 -14 24 -14 6 0 20 -9 30 -20 10 -11 24 -20 32
-20 7 0 13 -4 13 -10 0 -5 7 -10 15 -10 13 0 70 -34 131 -77 22 -17 54 -33 63
-33 5 0 25 -14 43 -31 18 -17 53 -42 78 -57 49 -28 121 -81 132 -97 13 -17 9
-70 -17 -217 -14 -78 -25 -149 -25 -156 0 -20 80 59 153 151 60 75 63 77 96
72 35 -7 64 -20 94 -45 10 -8 30 -16 45 -18 14 -2 37 -9 51 -17 15 -7 53 -18
86 -25 33 -7 70 -16 83 -21 13 -5 31 -9 42 -9 10 0 20 -4 22 -9 2 -5 23 -12
48 -14 51 -5 53 -13 19 -79 -31 -61 -27 -73 29 -74 26 0 90 -2 142 -4 89 -2
99 0 163 29 45 21 73 29 80 23 7 -5 24 -13 39 -18 l28 -9 -30 -35 -30 -35 22
-9 c13 -4 34 -14 48 -21 27 -14 130 -47 218 -71 29 -8 137 -21 240 -29 103 -8
201 -18 218 -21 16 -3 105 2 197 11 199 20 298 12 447 -36 133 -42 168 -80
118 -126 -38 -34 -120 -54 -340 -83 -48 -7 -92 -18 -99 -26 -22 -27 70 -249
172 -409 l41 -65 297 0 298 0 7 123 c7 131 16 187 30 190 9 2 58 -109 71 -161
4 -15 20 -55 35 -89 l29 -63 66 0 c51 0 65 3 65 15 0 8 6 15 14 15 8 0 16 -7
20 -15 4 -12 30 -15 140 -15 148 0 166 3 166 31 0 37 49 185 89 270 23 48 41
93 41 100 0 8 7 27 15 42 8 15 19 55 26 88 7 33 18 63 25 66 8 3 11 9 8 14 -3
5 7 24 22 42 32 38 64 106 133 282 27 72 65 168 83 214 18 47 39 86 46 89 6 2
67 -51 135 -117 67 -67 134 -129 149 -139 15 -9 54 -36 87 -59 33 -23 71 -45
85 -49 15 -3 29 -10 32 -15 8 -14 31 -11 49 7 8 9 22 14 29 11 9 -4 16 3 20
18 4 16 -5 42 -29 85 -35 61 -43 90 -27 90 5 0 47 -23 93 -50 46 -28 103 -57
127 -66 23 -9 42 -20 42 -24 0 -4 17 -11 38 -14 60 -10 67 -12 79 -19 20 -13
148 -36 173 -31 14 2 75 9 135 14 61 6 119 12 130 14 11 1 47 6 80 10 33 4 72
12 88 18 24 9 27 16 27 54 0 25 -4 52 -9 62 -15 26 -58 147 -87 242 -80 265
-114 387 -112 404 3 17 8 15 48 -17 25 -19 71 -54 103 -77 l57 -41 0 2818 0
2818 -72 45 c-78 47 -119 85 -278 256 -108 116 -112 125 -85 199 23 65 17 71
-22 21 -21 -25 -45 -46 -53 -46 -8 0 -55 42 -105 93 -86 89 -236 229 -300 279
-44 34 -133 117 -280 259 -211 206 -256 246 -344 312 -45 34 -97 74 -115 88
-47 40 -271 172 -388 230 -125 62 -217 99 -368 149 -217 72 -276 84 -551 109
-58 6 -155 21 -215 35 -222 50 -291 65 -371 77 -52 8 -83 17 -83 25 0 12 230
129 305 155 35 12 -22 14 -479 17 l-520 2 -35 -28 c-34 -27 -74 -52 -84 -52
-3 0 -27 18 -53 40 l-49 40 -2472 0 -2473 0 0 -4745z m3543 1788 c9 -32 32
-119 51 -193 40 -153 80 -290 94 -317 18 -36 73 -204 70 -214 -2 -5 -53 15
-113 44 -109 54 -279 132 -427 198 -43 19 -78 37 -78 40 0 3 15 23 33 45 18
21 73 94 123 162 116 160 125 174 148 208 25 37 68 84 77 84 3 0 14 -26 22
-57z m-658 -1344 c22 -6 42 -14 45 -18 3 -4 13 -12 22 -17 16 -9 8 -22 -62
-106 -70 -85 -105 -118 -124 -118 -10 0 -7 38 6 65 10 21 9 31 -5 55 -24 40
-21 78 9 117 27 36 45 39 109 22z m4598 -4393 c42 -7 54 -21 67 -76 12 -52 7
-90 -13 -90 -7 0 -27 14 -45 30 -18 17 -37 30 -41 30 -4 0 -12 15 -18 33 -13
37 -7 88 11 82 6 -3 24 -7 39 -9z m-483 -81 c43 -15 51 -46 18 -63 -51 -28
-160 -14 -182 21 -7 11 -5 22 8 36 29 31 76 33 156 6z m-4970 -190 c0 -8 -7
-15 -15 -15 -8 0 -15 7 -15 15 0 8 7 15 15 15 8 0 15 -7 15 -15z m50 -4 c0 -5
-6 -14 -14 -20 -11 -9 -15 -7 -19 9 -4 15 0 20 14 20 10 0 19 -4 19 -9z m2982
-289 c7 -55 0 -68 -37 -68 -18 0 -31 4 -29 8 9 14 -4 9 -21 -8 -17 -17 -105
-23 -137 -9 -10 4 -25 5 -33 1 -8 -3 -19 3 -25 12 -8 12 -13 14 -16 5 -3 -7
-13 -13 -21 -13 -13 0 -13 3 -3 15 7 8 25 15 40 15 14 0 30 3 34 8 11 11 219
69 232 65 7 -3 14 -16 16 -31z"/>
<path d="M1270 4646 c0 -25 12 -46 26 -46 17 0 17 2 2 35 -12 27 -28 33 -28
11z"/>
<path d="M1105 4000 c-4 -6 10 -32 29 -59 23 -30 41 -71 50 -112 16 -66 50
-109 89 -109 23 0 23 49 0 93 -14 27 -151 197 -159 197 -2 0 -6 -5 -9 -10z"/>
<path d="M4090 720 c-13 -8 -13 -10 2 -10 9 0 20 5 23 10 8 13 -5 13 -25 0z"/>
<path d="M2368 669 c-10 -6 -18 -7 -18 -3 0 3 -7 1 -15 -6 -8 -7 -12 -16 -9
-21 3 -5 -1 -9 -8 -9 -7 0 -35 -11 -63 -25 -27 -13 -55 -25 -61 -25 -7 0 -14
-7 -18 -15 -3 -8 -12 -12 -21 -9 -10 4 -15 0 -15 -10 0 -9 5 -16 11 -16 6 0 8
-7 5 -16 -3 -8 -2 -12 4 -9 6 3 10 1 10 -5 0 -6 7 -18 15 -26 13 -14 15 -14
15 0 0 9 4 16 10 16 5 0 7 -6 4 -14 -11 -27 107 -37 136 -11 15 14 79 22 207
25 29 0 37 15 17 34 -8 9 -12 16 -7 16 4 0 9 11 9 25 1 14 -4 25 -11 25 -6 0
-22 14 -35 30 -13 17 -29 30 -36 30 -7 0 -14 5 -16 10 -4 14 -89 21 -110 9z"/>
</g>
</svg>
