<?xml version="1.0" standalone="no"?>
<!DOCTYPE svg PUBLIC "-//W3C//DTD SVG 20010904//EN"
 "http://www.w3.org/TR/2001/REC-SVG-20010904/DTD/svg10.dtd">
<svg version="1.0" xmlns="http://www.w3.org/2000/svg"
 width="640.000000pt" height="640.000000pt" viewBox="0 0 640.000000 640.000000"
 preserveAspectRatio="xMidYMid meet">
<metadata>
Created by potrace 1.11, written by Peter Selinger 2001-2013
</metadata>
<g transform="translate(0.000000,640.000000) scale(0.100000,-0.100000)"
fill="#000000" stroke="none">
<path d="M0 3200 l0 -3200 733 0 732 1 91 103 c50 56 95 101 101 99 6 -2 20
20 32 49 34 80 54 117 68 122 18 7 16 -8 -8 -84 -14 -44 -27 -69 -41 -75 -12
-6 -23 -17 -24 -25 -1 -8 -19 -52 -38 -98 -20 -46 -36 -85 -36 -88 0 -2 18 -4
40 -4 38 0 46 6 170 132 72 72 128 133 126 136 -3 2 -33 -23 -67 -56 -34 -33
-67 -58 -74 -55 -8 2 -20 -10 -30 -30 -17 -36 -95 -118 -95 -100 0 6 13 45 30
86 16 41 36 101 45 133 12 47 24 68 60 102 41 39 45 47 45 90 0 63 53 241 77
262 15 13 489 93 503 85 3 -2 -25 -66 -62 -142 -37 -76 -64 -139 -60 -141 5
-1 34 9 66 23 56 25 351 105 386 105 25 0 291 -292 555 -607 l20 -23 749 2
750 3 -32 36 c-18 20 -32 41 -32 47 0 6 -5 14 -12 18 -7 5 -9 2 -6 -8 10 -26
-7 -41 -23 -22 -9 11 -9 15 -2 10 9 -5 11 -2 6 10 -6 16 -8 16 -20 -3 -13 -19
-18 -20 -41 -10 -31 14 -84 48 -93 60 -3 4 -16 9 -29 12 -12 2 -29 14 -37 25
-8 11 -18 20 -23 20 -14 0 -50 33 -50 46 0 6 -11 17 -24 24 -33 17 -40 37 -15
45 22 7 25 21 7 29 -10 5 -10 7 -1 12 8 3 -16 21 -55 41 -140 75 -137 71 -156
165 -21 98 -32 309 -19 358 9 34 10 33 57 -85 26 -66 67 -151 91 -190 74 -118
77 -120 50 -20 -22 81 -32 145 -21 145 2 0 47 -42 99 -93 122 -119 135 -130
163 -133 27 -3 36 15 24 53 -4 15 -9 21 -9 14 -1 -11 -4 -12 -12 -4 -6 6 -13
70 -15 149 -6 163 -6 161 133 509 22 55 51 128 64 162 13 35 29 63 35 63 6 0
40 -28 75 -63 75 -75 208 -181 250 -199 16 -7 29 -16 29 -20 0 -5 7 -8 15 -8
8 0 15 -5 15 -12 0 -6 3 -8 6 -5 4 3 15 2 25 -4 15 -7 19 -6 19 6 0 8 -4 15
-10 15 -5 0 -10 5 -10 11 0 6 -20 42 -45 79 -47 71 -62 100 -50 100 4 0 33
-15 64 -34 79 -47 177 -84 285 -107 51 -11 144 -35 207 -53 82 -24 118 -31
127 -23 11 8 11 12 0 18 -7 5 -9 9 -4 9 5 0 3 7 -4 15 -41 50 -200 471 -200
531 0 21 6 18 68 -30 94 -72 277 -175 289 -162 2 2 -7 26 -20 53 -13 26 -32
73 -41 103 -9 30 -23 75 -30 100 -26 81 -28 100 -12 100 33 0 120 -130 162
-240 13 -35 13 -34 7 20 -10 103 -51 167 -141 224 -50 31 -53 46 -58 271 -4
169 -3 181 15 192 30 19 45 0 109 -147 85 -191 162 -338 303 -573 16 -27 29
-50 29 -52 0 -1 18 -34 40 -71 l40 -69 0 1223 c0 1157 -1 1222 -17 1222 -10
-1 -47 -7 -83 -15 -85 -19 -90 -18 -90 5 0 12 12 25 33 35 17 8 60 36 95 62
l62 46 0 352 0 352 -47 13 c-63 15 -128 38 -178 60 -22 9 -51 21 -65 25 -41
12 -230 106 -230 115 0 13 66 127 118 205 44 65 313 347 375 393 16 12 27 27
25 33 -6 17 -157 -119 -275 -246 -126 -136 -185 -215 -238 -319 -11 -21 -26
-40 -33 -43 -28 -12 -158 81 -258 184 -110 113 -107 107 -79 188 4 14 -3 10
-22 -12 -16 -18 -34 -33 -40 -33 -6 0 -26 17 -44 38 -18 20 -78 77 -133 126
-56 49 -167 152 -249 229 -257 244 -411 341 -692 437 -120 42 -187 55 -310 65
-44 4 -125 17 -180 30 -55 13 -130 29 -167 35 -38 7 -65 16 -62 21 3 5 40 25
82 44 42 20 91 42 107 50 27 12 -6 14 -284 14 l-314 1 -33 -25 c-18 -14 -38
-25 -45 -25 -7 0 -27 11 -45 25 l-33 25 -1525 0 -1526 0 0 -3200z m6384 1472
c2 -4 -4 -53 -15 -107 -17 -88 -24 -169 -43 -478 -3 -38 -6 -70 -8 -72 -14
-12 -110 -67 -113 -64 -2 2 -13 40 -24 84 -32 127 -76 247 -105 289 -14 22
-29 51 -33 65 -6 23 -20 56 -89 209 -13 29 -24 54 -24 55 0 1 78 2 172 2 97 0
193 5 218 11 59 15 58 15 64 6z m-4127 -147 c14 -49 29 -108 34 -130 5 -22 14
-49 19 -60 32 -69 51 -117 48 -121 -3 -2 -63 25 -135 61 -72 35 -141 67 -154
70 -13 3 -32 12 -42 20 -18 13 -17 16 17 62 20 26 39 53 44 58 4 6 23 33 42
60 19 28 40 56 47 63 7 8 18 23 25 35 l11 21 9 -24 c6 -14 21 -65 35 -115z
m-427 -181 c11 -28 13 -87 4 -121 -5 -17 -15 -23 -47 -25 -22 -2 -42 -8 -44
-14 -2 -6 17 -27 43 -47 37 -29 43 -38 30 -43 -23 -9 -20 -34 4 -34 36 0 26
-65 -25 -150 -77 -129 -98 -180 -98 -235 l0 -50 -42 0 c-47 0 -83 -21 -65 -39
14 -14 340 -19 340 -5 0 5 -20 9 -44 9 -51 0 -106 10 -106 19 0 4 24 32 54 64
30 31 79 91 111 132 31 41 60 75 65 75 19 0 137 -99 173 -146 l37 -49 -31 -28
c-17 -16 -29 -31 -26 -33 4 -5 86 16 280 68 20 6 37 16 37 23 0 6 -45 51 -100
99 -100 87 -118 106 -80 86 32 -17 23 3 -13 28 -17 13 -88 63 -157 112 -182
129 -182 128 -178 159 4 35 29 30 88 -18 121 -100 290 -223 302 -219 8 3 4 12
-12 25 -14 12 -47 40 -74 63 -50 43 -140 113 -180 140 -100 69 -112 104 -23
68 29 -11 98 -36 155 -54 133 -44 174 -66 189 -101 20 -48 63 -165 88 -238 13
-38 33 -94 44 -123 16 -39 21 -75 21 -140 0 -87 7 -132 19 -132 4 0 26 46 50
103 60 141 57 136 106 192 25 28 52 65 62 83 10 17 21 32 25 32 7 0 20 -40 64
-206 l27 -102 -66 -113 c-79 -137 -139 -261 -206 -429 -55 -138 -73 -162 -170
-225 -295 -190 -460 -270 -771 -372 -152 -49 -406 -120 -477 -133 -82 -14
-167 -31 -186 -36 -34 -11 -5 -19 52 -16 78 5 119 -12 621 -256 199 -96 531
-283 569 -319 7 -8 29 -22 50 -32 51 -27 81 -58 81 -84 0 -12 -7 -49 -15 -82
-8 -33 -14 -73 -14 -90 0 -29 2 -28 69 45 l69 74 78 -53 c43 -30 91 -66 107
-80 16 -14 26 -20 22 -13 -4 7 -1 12 8 12 9 0 16 -5 16 -11 0 -6 9 -9 20 -6
23 6 26 -15 10 -59 -10 -26 -10 -26 22 -20 18 4 53 9 78 11 24 3 66 12 92 21
53 17 69 13 61 -16 -4 -14 0 -20 12 -20 9 0 56 -13 104 -29 136 -46 324 -69
481 -60 114 7 229 -5 273 -27 55 -29 24 -50 -98 -66 -117 -15 -121 -18 -95
-92 39 -114 141 -281 233 -381 41 -44 46 -59 20 -51 -50 15 -137 35 -180 42
-65 9 -98 46 -216 236 -23 38 -22 49 18 128 19 38 35 75 35 82 0 16 -215 7
-247 -11 -12 -6 -34 -11 -50 -11 -15 0 -55 -9 -89 -19 -107 -34 -181 -35 -388
-7 -204 28 -258 31 -285 17 -18 -10 -318 -15 -406 -7 -107 10 -236 4 -289 -14
-76 -26 -146 -3 -146 47 0 22 3 24 38 19 63 -9 256 -10 275 -1 10 4 30 5 46 2
15 -3 33 -1 39 5 26 26 410 76 457 59 21 -7 42 -7 67 -1 38 11 88 60 88 87 0
18 4 18 -185 -21 -253 -52 -586 -85 -793 -78 l-92 3 -34 67 c-18 37 -62 155
-96 262 -82 255 -133 381 -176 439 -58 76 -170 165 -289 230 -33 18 -67 39
-75 46 -8 7 -25 16 -36 19 -12 4 -29 15 -39 26 -10 11 -23 20 -30 20 -6 0 -24
14 -39 30 -15 17 -31 28 -36 25 -17 -11 -58 24 -53 45 3 11 -4 28 -16 41 l-20
22 5 -27 c4 -26 -13 -38 -21 -13 -10 29 -9 52 1 50 7 -1 10 6 7 17 -3 11 -9
20 -13 20 -23 0 -30 237 -9 314 7 25 7 42 1 44 -5 1 -4 25 4 60 8 31 14 74 14
94 0 20 5 40 10 43 6 4 10 -7 10 -27 0 -41 14 -67 23 -44 4 9 1 16 -5 16 -7 0
-7 4 1 14 6 7 9 20 6 28 -3 8 1 21 10 28 8 7 15 22 15 34 0 12 6 30 13 40 12
16 14 15 29 -16 10 -18 19 -45 22 -59 3 -15 17 -31 32 -37 30 -14 44 -8 44 17
0 25 -90 147 -118 160 -13 6 -20 15 -17 21 3 5 -4 14 -15 20 -11 6 -19 18 -19
28 1 16 2 16 6 0 10 -40 18 -13 18 62 0 55 -4 83 -13 89 -10 6 -9 11 4 21 9 8
21 26 26 40 l11 25 6 -24 c6 -23 8 -22 19 16 7 22 12 56 12 76 0 27 5 37 21
42 15 5 18 10 10 18 -16 16 -14 86 3 103 10 10 16 10 18 2 2 -6 12 14 22 45
10 31 21 58 24 58 4 1 17 3 28 4 30 3 44 14 55 42 7 19 15 24 36 21 22 -2 28
2 33 21 7 32 30 39 37 12 7 -26 15 -26 36 -3 13 14 14 21 5 30 -9 9 -8 12 8
12 10 1 42 9 70 18 39 14 51 15 47 5 -3 -7 2 -13 11 -13 10 0 13 6 10 15 -5
11 3 17 25 21 17 4 31 10 31 15 0 7 51 39 63 39 3 0 3 -16 0 -35 -3 -20 0 -41
5 -48 6 -7 23 -84 37 -172 15 -88 32 -168 38 -180 10 -19 11 -18 19 10 7 29
34 174 44 245 5 38 38 147 58 195 7 17 22 59 33 95 13 45 24 65 35 64 11 -1
14 5 10 19 -3 12 1 23 12 29 9 5 22 21 27 36 7 19 12 23 18 13 6 -9 11 -10 15
-2 4 6 5 15 2 19 -6 11 21 52 35 52 5 0 14 -12 19 -26z m4508 -669 c4 -238
-15 -510 -34 -494 -17 14 -21 36 -39 219 -9 85 -20 169 -25 185 -5 17 -12 82
-15 146 l-7 116 43 10 c78 19 74 30 77 -182z m-4503 165 c22 -9 26 -15 21 -35
-8 -30 -36 -65 -53 -65 -11 0 -43 37 -43 51 0 7 40 59 45 59 2 0 16 -5 30 -10z
m-1038 -87 c-3 -10 -5 -4 -5 12 0 17 2 24 5 18 2 -7 2 -21 0 -30z m0 -99 c-4
-15 -5 -14 -6 4 -1 15 -5 21 -13 16 -7 -5 -8 -3 -3 5 10 18 28 -2 22 -25z
m-157 -996 c0 -10 -4 -18 -9 -18 -11 0 -19 30 -13 49 4 11 6 11 13 0 5 -8 9
-22 9 -31z m65 -1451 c59 -11 70 -16 70 -32 0 -17 -16 -24 -105 -48 -171 -45
-340 -29 -340 34 0 22 32 41 80 46 19 2 36 6 39 8 9 10 188 3 256 -8z m604
-24 c2 -2 -21 -3 -52 -3 -62 0 -73 10 -29 26 25 9 44 4 81 -23z m3094 -833 c3
-11 0 -23 -5 -27 -7 -3 -8 -1 -4 5 4 7 1 12 -7 12 -8 0 -17 7 -21 15 -3 10 1
15 13 15 10 0 21 -9 24 -20z m377 -310 c0 -5 -2 -10 -4 -10 -3 0 -8 5 -11 10
-3 6 -1 10 4 10 6 0 11 -4 11 -10z"/>
<path d="M1715 4241 c-3 -5 -1 -12 5 -16 5 -3 10 1 10 9 0 18 -6 21 -15 7z"/>
<path d="M1391 3984 c0 -11 3 -14 6 -6 3 7 2 16 -1 19 -3 4 -6 -2 -5 -13z"/>
<path d="M1210 3911 c0 -17 18 -21 24 -6 3 9 0 15 -9 15 -8 0 -15 -4 -15 -9z"/>
<path d="M1040 3830 c0 -5 5 -10 10 -10 6 0 10 5 10 10 0 6 -4 10 -10 10 -5 0
-10 -4 -10 -10z"/>
<path d="M880 3570 c0 -5 5 -10 10 -10 6 0 10 5 10 10 0 6 -4 10 -10 10 -5 0
-10 -4 -10 -10z"/>
<path d="M880 3516 c0 -29 17 -43 33 -27 8 8 9 16 1 28 -17 27 -34 27 -34 -1z"/>
<path d="M782 3255 c0 -16 2 -22 5 -12 2 9 2 23 0 30 -3 6 -5 -1 -5 -18z"/>
<path d="M720 2865 c0 -9 6 -12 15 -9 8 4 12 10 9 15 -8 14 -24 10 -24 -6z"/>
<path d="M2352 1265 c0 -16 2 -22 5 -12 2 9 2 23 0 30 -3 6 -5 -1 -5 -18z"/>
<path d="M2545 1120 c3 -5 8 -10 11 -10 2 0 4 5 4 10 0 6 -5 10 -11 10 -5 0
-7 -4 -4 -10z"/>
<path d="M6370 5785 c-24 -13 -49 -26 -95 -46 -11 -5 -51 -20 -90 -34 -80 -28
-75 -29 90 -26 61 2 115 8 120 13 7 7 -19 8 -77 3 -49 -4 -88 -4 -88 -1 0 3
37 24 83 47 90 45 92 47 86 54 -3 2 -16 -2 -29 -10z"/>
<path d="M6070 1521 c0 -6 5 -13 10 -16 6 -3 10 1 10 9 0 9 -4 16 -10 16 -5 0
-10 -4 -10 -9z"/>
<path d="M6261 1364 c0 -11 3 -14 6 -6 3 7 2 16 -1 19 -3 4 -6 -2 -5 -13z"/>
<path d="M6265 1311 c-3 -5 -1 -12 5 -16 5 -3 10 1 10 9 0 18 -6 21 -15 7z"/>
<path d="M6223 912 c-10 -7 -18 -18 -18 -25 0 -6 -20 -22 -45 -36 -305 -163
-514 -324 -603 -464 -39 -62 -167 -355 -167 -383 0 -2 227 -4 505 -4 l505 0 0
459 0 459 -80 4 c-54 2 -85 -1 -97 -10z"/>
<path d="M2019 329 c-23 -19 -23 -20 -2 -10 12 6 25 16 28 21 10 16 -1 12 -26
-11z"/>
<path d="M4478 328 c5 -5 16 -8 23 -6 8 3 3 7 -10 11 -17 4 -21 3 -13 -5z"/>
<path d="M5060 315 c0 -9 -6 -12 -15 -8 -9 3 -22 -2 -30 -13 -21 -27 -84 -158
-111 -231 l-24 -63 75 0 c59 0 75 3 75 15 0 8 7 36 16 62 9 26 29 93 43 148
l27 100 -28 2 c-19 1 -28 -3 -28 -12z"/>
<path d="M1812 223 c-18 -32 -16 -51 4 -31 9 8 14 24 12 34 -4 18 -5 17 -16
-3z"/>
<path d="M1613 123 c-18 -39 -35 -83 -39 -97 -9 -38 11 -32 26 7 7 17 21 54
32 80 32 79 15 88 -19 10z"/>
</g>
</svg>
